<mxfile host="65bd71144e">
    <diagram id="rwZVFnb9-4XuviEcM_qo" name="페이지-1">
        <mxGraphModel dx="734" dy="359" grid="1" gridSize="10" guides="1" tooltips="1" connect="1" arrows="1" fold="1" page="1" pageScale="1" pageWidth="827" pageHeight="1169" math="0" shadow="0">
            <root>
                <mxCell id="0"/>
                <mxCell id="1" parent="0"/>
                <mxCell id="2" value="Button" style="whiteSpace=wrap;html=1;fontSize=18;fillColor=#008a00;fontColor=#ffffff;strokeColor=#005700;" parent="1" vertex="1">
                    <mxGeometry x="110" y="400" width="120" height="60" as="geometry"/>
                </mxCell>
                <mxCell id="6" value="" style="edgeStyle=none;html=1;fontSize=18;" parent="1" source="4" target="2" edge="1">
                    <mxGeometry relative="1" as="geometry"/>
                </mxCell>
                <mxCell id="8" value="" style="edgeStyle=none;html=1;fontSize=18;" parent="1" source="4" target="7" edge="1">
                    <mxGeometry relative="1" as="geometry"/>
                </mxCell>
                <mxCell id="4" value="Listener" style="whiteSpace=wrap;html=1;fontSize=18;" parent="1" vertex="1">
                    <mxGeometry x="110" y="260" width="120" height="60" as="geometry"/>
                </mxCell>
                <mxCell id="14" value="" style="edgeStyle=none;html=1;fontSize=18;" parent="1" source="7" target="13" edge="1">
                    <mxGeometry relative="1" as="geometry"/>
                </mxCell>
                <mxCell id="7" value="Controller" style="whiteSpace=wrap;html=1;fontSize=18;" parent="1" vertex="1">
                    <mxGeometry x="310" y="260" width="120" height="60" as="geometry"/>
                </mxCell>
                <mxCell id="12" value="" style="edgeStyle=none;html=1;fontSize=18;" parent="1" source="9" target="11" edge="1">
                    <mxGeometry relative="1" as="geometry"/>
                </mxCell>
                <mxCell id="9" value="LightView" style="whiteSpace=wrap;html=1;fontSize=18;" parent="1" vertex="1">
                    <mxGeometry x="510" y="260" width="120" height="60" as="geometry"/>
                </mxCell>
                <mxCell id="11" value="LED" style="whiteSpace=wrap;html=1;fontSize=18;" parent="1" vertex="1">
                    <mxGeometry x="510" y="400" width="120" height="60" as="geometry"/>
                </mxCell>
                <mxCell id="15" style="edgeStyle=orthogonalEdgeStyle;html=1;exitX=1;exitY=0.5;exitDx=0;exitDy=0;entryX=0.5;entryY=0;entryDx=0;entryDy=0;fontSize=18;rounded=0;" parent="1" source="13" target="9" edge="1">
                    <mxGeometry relative="1" as="geometry"/>
                </mxCell>
                <mxCell id="13" value="StandLight&lt;br&gt;Service" style="whiteSpace=wrap;html=1;fontSize=18;" parent="1" vertex="1">
                    <mxGeometry x="310" y="120" width="120" height="60" as="geometry"/>
                </mxCell>
                <mxCell id="5AWAFgj_eRccJyb0xr2y-15" value="LCD" style="whiteSpace=wrap;html=1;fontSize=18;fillColor=#008a00;fontColor=#ffffff;strokeColor=#005700;" parent="1" vertex="1">
                    <mxGeometry x="650" y="400" width="120" height="60" as="geometry"/>
                </mxCell>
                <mxCell id="5AWAFgj_eRccJyb0xr2y-17" value="ClockService" style="whiteSpace=wrap;html=1;fontSize=18;fillColor=#008a00;fontColor=#ffffff;strokeColor=#005700;" parent="1" vertex="1">
                    <mxGeometry x="160" y="120" width="120" height="60" as="geometry"/>
                </mxCell>
                <mxCell id="5AWAFgj_eRccJyb0xr2y-18" value="" style="endArrow=classic;html=1;" parent="1" edge="1">
                    <mxGeometry width="50" height="50" relative="1" as="geometry">
                        <mxPoint x="370" y="260" as="sourcePoint"/>
                        <mxPoint x="230" y="180" as="targetPoint"/>
                        <Array as="points">
                            <mxPoint x="370" y="220"/>
                            <mxPoint x="230" y="220"/>
                        </Array>
                    </mxGeometry>
                </mxCell>
                <mxCell id="5AWAFgj_eRccJyb0xr2y-19" value="" style="endArrow=classic;html=1;entryX=0.567;entryY=-0.05;entryDx=0;entryDy=0;entryPerimeter=0;" parent="1" target="5AWAFgj_eRccJyb0xr2y-20" edge="1">
                    <mxGeometry width="50" height="50" relative="1" as="geometry">
                        <mxPoint x="240" y="120" as="sourcePoint"/>
                        <mxPoint x="720" y="250" as="targetPoint"/>
                        <Array as="points">
                            <mxPoint x="240" y="80"/>
                            <mxPoint x="720" y="80"/>
                        </Array>
                    </mxGeometry>
                </mxCell>
                <mxCell id="5AWAFgj_eRccJyb0xr2y-20" value="ClockView" style="whiteSpace=wrap;html=1;fontSize=18;fillColor=#008a00;fontColor=#ffffff;strokeColor=#005700;" parent="1" vertex="1">
                    <mxGeometry x="650" y="260" width="120" height="60" as="geometry"/>
                </mxCell>
                <mxCell id="5AWAFgj_eRccJyb0xr2y-22" value="" style="endArrow=classic;html=1;entryX=0.58;entryY=0.03;entryDx=0;entryDy=0;entryPerimeter=0;" parent="1" target="5AWAFgj_eRccJyb0xr2y-15" edge="1">
                    <mxGeometry width="50" height="50" relative="1" as="geometry">
                        <mxPoint x="720" y="320" as="sourcePoint"/>
                        <mxPoint x="770" y="270" as="targetPoint"/>
                    </mxGeometry>
                </mxCell>
                <mxCell id="5AWAFgj_eRccJyb0xr2y-23" value="ClockCheck" style="whiteSpace=wrap;html=1;fontSize=18;fillColor=#008a00;fontColor=#ffffff;strokeColor=#005700;" parent="1" vertex="1">
                    <mxGeometry x="240" y="400" width="120" height="60" as="geometry"/>
                </mxCell>
                <mxCell id="5AWAFgj_eRccJyb0xr2y-24" value="" style="endArrow=classic;html=1;entryX=0.5;entryY=0;entryDx=0;entryDy=0;" parent="1" target="5AWAFgj_eRccJyb0xr2y-23" edge="1">
                    <mxGeometry width="50" height="50" relative="1" as="geometry">
                        <mxPoint x="170" y="360" as="sourcePoint"/>
                        <mxPoint x="310" y="360" as="targetPoint"/>
                        <Array as="points">
                            <mxPoint x="300" y="360"/>
                        </Array>
                    </mxGeometry>
                </mxCell>
                <mxCell id="16" value="" style="endArrow=classic;html=1;entryX=0.25;entryY=0;entryDx=0;entryDy=0;" edge="1" parent="1" target="5AWAFgj_eRccJyb0xr2y-15">
                    <mxGeometry width="50" height="50" relative="1" as="geometry">
                        <mxPoint x="570" y="320" as="sourcePoint"/>
                        <mxPoint x="620" y="270" as="targetPoint"/>
                    </mxGeometry>
                </mxCell>
            </root>
        </mxGraphModel>
    </diagram>
    <diagram id="JMYObuIH1QSER_L9iBrt" name="페이지-2">
        <mxGraphModel dx="974" dy="359" grid="1" gridSize="10" guides="1" tooltips="1" connect="1" arrows="1" fold="1" page="1" pageScale="1" pageWidth="827" pageHeight="1169" background="none" math="0" shadow="0">
            <root>
                <mxCell id="Q607Y2rKxZQUFugG3BdK-0"/>
                <mxCell id="Q607Y2rKxZQUFugG3BdK-1" parent="Q607Y2rKxZQUFugG3BdK-0"/>
                <mxCell id="XUThxh31XiLSm-2z7mRA-0" value="Button" style="whiteSpace=wrap;html=1;fontSize=18;" parent="Q607Y2rKxZQUFugG3BdK-1" vertex="1">
                    <mxGeometry x="150" y="220" width="120" height="60" as="geometry"/>
                </mxCell>
                <mxCell id="XUThxh31XiLSm-2z7mRA-1" value="" style="edgeStyle=none;html=1;fontSize=18;" parent="Q607Y2rKxZQUFugG3BdK-1" source="XUThxh31XiLSm-2z7mRA-2" target="XUThxh31XiLSm-2z7mRA-0" edge="1">
                    <mxGeometry relative="1" as="geometry"/>
                </mxCell>
                <mxCell id="Xn4zP_rzqBb-KwKWEkbt-1" style="edgeStyle=orthogonalEdgeStyle;rounded=0;html=1;exitX=1;exitY=0.5;exitDx=0;exitDy=0;fontSize=18;" parent="Q607Y2rKxZQUFugG3BdK-1" source="XUThxh31XiLSm-2z7mRA-2" target="Xn4zP_rzqBb-KwKWEkbt-0" edge="1">
                    <mxGeometry relative="1" as="geometry"/>
                </mxCell>
                <mxCell id="XUThxh31XiLSm-2z7mRA-2" value="Listener" style="whiteSpace=wrap;html=1;fontSize=18;" parent="Q607Y2rKxZQUFugG3BdK-1" vertex="1">
                    <mxGeometry x="150" y="80" width="120" height="60" as="geometry"/>
                </mxCell>
                <mxCell id="XUThxh31XiLSm-2z7mRA-3" value="LED" style="whiteSpace=wrap;html=1;fontSize=18;" parent="Q607Y2rKxZQUFugG3BdK-1" vertex="1">
                    <mxGeometry x="540" y="220" width="120" height="60" as="geometry"/>
                </mxCell>
                <mxCell id="XUThxh31XiLSm-2z7mRA-6" value="이벤트 감시 기능" style="text;html=1;align=center;verticalAlign=middle;resizable=0;points=[];autosize=1;strokeColor=none;fillColor=none;fontSize=18;" parent="Q607Y2rKxZQUFugG3BdK-1" vertex="1">
                    <mxGeometry x="130" y="50" width="150" height="30" as="geometry"/>
                </mxCell>
                <mxCell id="z8fZrk0xQkMEeZACTWGU-1" style="edgeStyle=orthogonalEdgeStyle;rounded=0;html=1;exitX=1;exitY=0.5;exitDx=0;exitDy=0;entryX=0;entryY=0.5;entryDx=0;entryDy=0;fontSize=18;" parent="Q607Y2rKxZQUFugG3BdK-1" source="Xn4zP_rzqBb-KwKWEkbt-0" target="z8fZrk0xQkMEeZACTWGU-0" edge="1">
                    <mxGeometry relative="1" as="geometry"/>
                </mxCell>
                <mxCell id="Xn4zP_rzqBb-KwKWEkbt-0" value="controller" style="whiteSpace=wrap;html=1;fontSize=18;" parent="Q607Y2rKxZQUFugG3BdK-1" vertex="1">
                    <mxGeometry x="350" y="80" width="120" height="60" as="geometry"/>
                </mxCell>
                <mxCell id="z8fZrk0xQkMEeZACTWGU-2" style="edgeStyle=orthogonalEdgeStyle;rounded=0;html=1;exitX=0.5;exitY=1;exitDx=0;exitDy=0;fontSize=18;" parent="Q607Y2rKxZQUFugG3BdK-1" source="z8fZrk0xQkMEeZACTWGU-0" target="XUThxh31XiLSm-2z7mRA-3" edge="1">
                    <mxGeometry relative="1" as="geometry"/>
                </mxCell>
                <mxCell id="z8fZrk0xQkMEeZACTWGU-0" value="View" style="whiteSpace=wrap;html=1;fontSize=18;" parent="Q607Y2rKxZQUFugG3BdK-1" vertex="1">
                    <mxGeometry x="540" y="80" width="120" height="60" as="geometry"/>
                </mxCell>
                <mxCell id="_Sfnj0NwWYwx7ZMQ4_mJ-0" value="Data 분배" style="text;html=1;align=center;verticalAlign=middle;resizable=0;points=[];autosize=1;strokeColor=none;fillColor=none;fontSize=18;" parent="Q607Y2rKxZQUFugG3BdK-1" vertex="1">
                    <mxGeometry x="365" y="50" width="90" height="30" as="geometry"/>
                </mxCell>
                <mxCell id="_Sfnj0NwWYwx7ZMQ4_mJ-1" value="출력담당" style="text;html=1;align=center;verticalAlign=middle;resizable=0;points=[];autosize=1;strokeColor=none;fillColor=none;fontSize=18;" parent="Q607Y2rKxZQUFugG3BdK-1" vertex="1">
                    <mxGeometry x="555" y="50" width="90" height="30" as="geometry"/>
                </mxCell>
                <mxCell id="_Sfnj0NwWYwx7ZMQ4_mJ-2" value="밝기 조정 버튼" style="text;html=1;align=center;verticalAlign=middle;resizable=0;points=[];autosize=1;strokeColor=none;fillColor=none;fontSize=18;" parent="Q607Y2rKxZQUFugG3BdK-1" vertex="1">
                    <mxGeometry x="145" y="280" width="130" height="30" as="geometry"/>
                </mxCell>
                <mxCell id="_Sfnj0NwWYwx7ZMQ4_mJ-3" value="밝기에 따른 LED 개수 on/off" style="text;html=1;align=center;verticalAlign=middle;resizable=0;points=[];autosize=1;strokeColor=none;fillColor=none;fontSize=18;" parent="Q607Y2rKxZQUFugG3BdK-1" vertex="1">
                    <mxGeometry x="480" y="280" width="240" height="30" as="geometry"/>
                </mxCell>
                <mxCell id="_Sfnj0NwWYwx7ZMQ4_mJ-4" value="&lt;font style=&quot;font-size: 10px&quot;&gt;1&lt;/font&gt;" style="text;html=1;align=center;verticalAlign=middle;resizable=0;points=[];autosize=1;strokeColor=none;fillColor=none;fontSize=18;" parent="Q607Y2rKxZQUFugG3BdK-1" vertex="1">
                    <mxGeometry x="210" y="130" width="20" height="30" as="geometry"/>
                </mxCell>
                <mxCell id="_Sfnj0NwWYwx7ZMQ4_mJ-5" value="&lt;font style=&quot;font-size: 10px&quot;&gt;1&lt;/font&gt;" style="text;html=1;align=center;verticalAlign=middle;resizable=0;points=[];autosize=1;strokeColor=none;fillColor=none;fontSize=18;" parent="Q607Y2rKxZQUFugG3BdK-1" vertex="1">
                    <mxGeometry x="210" y="190" width="20" height="30" as="geometry"/>
                </mxCell>
                <mxCell id="_Sfnj0NwWYwx7ZMQ4_mJ-6" value="&lt;font style=&quot;font-size: 10px&quot;&gt;1&lt;/font&gt;" style="text;html=1;align=center;verticalAlign=middle;resizable=0;points=[];autosize=1;strokeColor=none;fillColor=none;fontSize=18;" parent="Q607Y2rKxZQUFugG3BdK-1" vertex="1">
                    <mxGeometry x="570" y="130" width="20" height="30" as="geometry"/>
                </mxCell>
                <mxCell id="_Sfnj0NwWYwx7ZMQ4_mJ-9" value="&lt;font style=&quot;font-size: 10px&quot;&gt;5&lt;/font&gt;" style="text;html=1;align=center;verticalAlign=middle;resizable=0;points=[];autosize=1;strokeColor=none;fillColor=none;fontSize=18;" parent="Q607Y2rKxZQUFugG3BdK-1" vertex="1">
                    <mxGeometry x="570" y="190" width="20" height="30" as="geometry"/>
                </mxCell>
            </root>
        </mxGraphModel>
    </diagram>
    <diagram id="ht8R60_hNru5M8OwtT-Q" name="페이지-3">
        <mxGraphModel dx="974" dy="359" grid="1" gridSize="10" guides="1" tooltips="1" connect="1" arrows="1" fold="1" page="1" pageScale="1" pageWidth="827" pageHeight="1169" math="0" shadow="0">
            <root>
                <mxCell id="p3mRSG3cKccDTSAAewCc-0"/>
                <mxCell id="p3mRSG3cKccDTSAAewCc-1" parent="p3mRSG3cKccDTSAAewCc-0"/>
                <mxCell id="L5CqpGbmgFwsVIx_IcjU-0" value="Button" style="whiteSpace=wrap;html=1;fontSize=18;" parent="p3mRSG3cKccDTSAAewCc-1" vertex="1">
                    <mxGeometry x="150" y="470" width="120" height="60" as="geometry"/>
                </mxCell>
                <mxCell id="L5CqpGbmgFwsVIx_IcjU-1" value="" style="edgeStyle=none;html=1;fontSize=18;" parent="p3mRSG3cKccDTSAAewCc-1" source="L5CqpGbmgFwsVIx_IcjU-3" target="L5CqpGbmgFwsVIx_IcjU-0" edge="1">
                    <mxGeometry relative="1" as="geometry"/>
                </mxCell>
                <mxCell id="L5CqpGbmgFwsVIx_IcjU-2" style="edgeStyle=orthogonalEdgeStyle;rounded=0;html=1;exitX=1;exitY=0.5;exitDx=0;exitDy=0;fontSize=18;" parent="p3mRSG3cKccDTSAAewCc-1" source="L5CqpGbmgFwsVIx_IcjU-3" target="L5CqpGbmgFwsVIx_IcjU-7" edge="1">
                    <mxGeometry relative="1" as="geometry"/>
                </mxCell>
                <mxCell id="L5CqpGbmgFwsVIx_IcjU-3" value="Listener" style="whiteSpace=wrap;html=1;fontSize=18;" parent="p3mRSG3cKccDTSAAewCc-1" vertex="1">
                    <mxGeometry x="150" y="330" width="120" height="60" as="geometry"/>
                </mxCell>
                <mxCell id="L5CqpGbmgFwsVIx_IcjU-4" value="LED" style="whiteSpace=wrap;html=1;fontSize=18;" parent="p3mRSG3cKccDTSAAewCc-1" vertex="1">
                    <mxGeometry x="540" y="470" width="120" height="60" as="geometry"/>
                </mxCell>
                <mxCell id="L5CqpGbmgFwsVIx_IcjU-5" value="이벤트 감시 기능" style="text;html=1;align=center;verticalAlign=middle;resizable=0;points=[];autosize=1;strokeColor=none;fillColor=none;fontSize=18;" parent="p3mRSG3cKccDTSAAewCc-1" vertex="1">
                    <mxGeometry x="130" y="300" width="150" height="30" as="geometry"/>
                </mxCell>
                <mxCell id="L5CqpGbmgFwsVIx_IcjU-7" value="controller" style="whiteSpace=wrap;html=1;fontSize=18;" parent="p3mRSG3cKccDTSAAewCc-1" vertex="1">
                    <mxGeometry x="350" y="330" width="120" height="60" as="geometry"/>
                </mxCell>
                <mxCell id="L5CqpGbmgFwsVIx_IcjU-8" style="edgeStyle=orthogonalEdgeStyle;rounded=0;html=1;exitX=0.5;exitY=1;exitDx=0;exitDy=0;fontSize=18;" parent="p3mRSG3cKccDTSAAewCc-1" source="L5CqpGbmgFwsVIx_IcjU-9" target="L5CqpGbmgFwsVIx_IcjU-4" edge="1">
                    <mxGeometry relative="1" as="geometry"/>
                </mxCell>
                <mxCell id="L5CqpGbmgFwsVIx_IcjU-9" value="View" style="whiteSpace=wrap;html=1;fontSize=18;" parent="p3mRSG3cKccDTSAAewCc-1" vertex="1">
                    <mxGeometry x="540" y="330" width="120" height="60" as="geometry"/>
                </mxCell>
                <mxCell id="L5CqpGbmgFwsVIx_IcjU-10" value="Data 분배" style="text;html=1;align=center;verticalAlign=middle;resizable=0;points=[];autosize=1;strokeColor=none;fillColor=none;fontSize=18;" parent="p3mRSG3cKccDTSAAewCc-1" vertex="1">
                    <mxGeometry x="365" y="400" width="90" height="30" as="geometry"/>
                </mxCell>
                <mxCell id="L5CqpGbmgFwsVIx_IcjU-11" value="출력담당" style="text;html=1;align=center;verticalAlign=middle;resizable=0;points=[];autosize=1;strokeColor=none;fillColor=none;fontSize=18;" parent="p3mRSG3cKccDTSAAewCc-1" vertex="1">
                    <mxGeometry x="555" y="300" width="90" height="30" as="geometry"/>
                </mxCell>
                <mxCell id="L5CqpGbmgFwsVIx_IcjU-12" value="밝기 조정 버튼" style="text;html=1;align=center;verticalAlign=middle;resizable=0;points=[];autosize=1;strokeColor=none;fillColor=none;fontSize=18;" parent="p3mRSG3cKccDTSAAewCc-1" vertex="1">
                    <mxGeometry x="145" y="530" width="130" height="30" as="geometry"/>
                </mxCell>
                <mxCell id="L5CqpGbmgFwsVIx_IcjU-13" value="밝기에 따른 LED 개수 on/off" style="text;html=1;align=center;verticalAlign=middle;resizable=0;points=[];autosize=1;strokeColor=none;fillColor=none;fontSize=18;" parent="p3mRSG3cKccDTSAAewCc-1" vertex="1">
                    <mxGeometry x="480" y="530" width="240" height="30" as="geometry"/>
                </mxCell>
                <mxCell id="L5CqpGbmgFwsVIx_IcjU-14" value="&lt;font style=&quot;font-size: 10px&quot;&gt;1&lt;/font&gt;" style="text;html=1;align=center;verticalAlign=middle;resizable=0;points=[];autosize=1;strokeColor=none;fillColor=none;fontSize=18;" parent="p3mRSG3cKccDTSAAewCc-1" vertex="1">
                    <mxGeometry x="210" y="380" width="20" height="30" as="geometry"/>
                </mxCell>
                <mxCell id="L5CqpGbmgFwsVIx_IcjU-15" value="&lt;font style=&quot;font-size: 10px&quot;&gt;1&lt;/font&gt;" style="text;html=1;align=center;verticalAlign=middle;resizable=0;points=[];autosize=1;strokeColor=none;fillColor=none;fontSize=18;" parent="p3mRSG3cKccDTSAAewCc-1" vertex="1">
                    <mxGeometry x="210" y="440" width="20" height="30" as="geometry"/>
                </mxCell>
                <mxCell id="L5CqpGbmgFwsVIx_IcjU-16" value="&lt;font style=&quot;font-size: 10px&quot;&gt;1&lt;/font&gt;" style="text;html=1;align=center;verticalAlign=middle;resizable=0;points=[];autosize=1;strokeColor=none;fillColor=none;fontSize=18;" parent="p3mRSG3cKccDTSAAewCc-1" vertex="1">
                    <mxGeometry x="570" y="380" width="20" height="30" as="geometry"/>
                </mxCell>
                <mxCell id="L5CqpGbmgFwsVIx_IcjU-17" value="&lt;font style=&quot;font-size: 10px&quot;&gt;5&lt;/font&gt;" style="text;html=1;align=center;verticalAlign=middle;resizable=0;points=[];autosize=1;strokeColor=none;fillColor=none;fontSize=18;" parent="p3mRSG3cKccDTSAAewCc-1" vertex="1">
                    <mxGeometry x="570" y="440" width="20" height="30" as="geometry"/>
                </mxCell>
                <mxCell id="L5CqpGbmgFwsVIx_IcjU-19" value="" style="endArrow=classic;html=1;" parent="p3mRSG3cKccDTSAAewCc-1" edge="1">
                    <mxGeometry width="50" height="50" relative="1" as="geometry">
                        <mxPoint x="409.5" y="330" as="sourcePoint"/>
                        <mxPoint x="409.5" y="260" as="targetPoint"/>
                        <Array as="points">
                            <mxPoint x="409.5" y="300"/>
                        </Array>
                    </mxGeometry>
                </mxCell>
                <mxCell id="L5CqpGbmgFwsVIx_IcjU-20" value="Service" style="whiteSpace=wrap;html=1;fontSize=18;" parent="p3mRSG3cKccDTSAAewCc-1" vertex="1">
                    <mxGeometry x="350" y="190" width="120" height="60" as="geometry"/>
                </mxCell>
                <mxCell id="L5CqpGbmgFwsVIx_IcjU-21" value="상태 머신" style="text;html=1;align=center;verticalAlign=middle;resizable=0;points=[];autosize=1;strokeColor=none;fillColor=none;fontSize=18;" parent="p3mRSG3cKccDTSAAewCc-1" vertex="1">
                    <mxGeometry x="365" y="160" width="90" height="30" as="geometry"/>
                </mxCell>
                <mxCell id="L5CqpGbmgFwsVIx_IcjU-23" value="" style="endArrow=classic;html=1;entryX=0.522;entryY=-0.033;entryDx=0;entryDy=0;entryPerimeter=0;" parent="p3mRSG3cKccDTSAAewCc-1" target="L5CqpGbmgFwsVIx_IcjU-11" edge="1">
                    <mxGeometry width="50" height="50" relative="1" as="geometry">
                        <mxPoint x="490" y="210" as="sourcePoint"/>
                        <mxPoint x="540" y="170" as="targetPoint"/>
                        <Array as="points">
                            <mxPoint x="602" y="210"/>
                        </Array>
                    </mxGeometry>
                </mxCell>
                <mxCell id="L5CqpGbmgFwsVIx_IcjU-24" value="&amp;lt;&amp;lt;enum&amp;gt;&amp;gt;&lt;br&gt;lightstate" style="whiteSpace=wrap;html=1;fontSize=18;" parent="p3mRSG3cKccDTSAAewCc-1" vertex="1">
                    <mxGeometry x="520" y="110" width="120" height="60" as="geometry"/>
                </mxCell>
                <mxCell id="L5CqpGbmgFwsVIx_IcjU-27" value="" style="endArrow=classic;html=1;" parent="p3mRSG3cKccDTSAAewCc-1" edge="1">
                    <mxGeometry width="50" height="50" relative="1" as="geometry">
                        <mxPoint x="620" y="290" as="sourcePoint"/>
                        <mxPoint x="620" y="180" as="targetPoint"/>
                    </mxGeometry>
                </mxCell>
                <mxCell id="L5CqpGbmgFwsVIx_IcjU-28" value="" style="endArrow=classic;html=1;" parent="p3mRSG3cKccDTSAAewCc-1" edge="1">
                    <mxGeometry width="50" height="50" relative="1" as="geometry">
                        <mxPoint x="405" y="160" as="sourcePoint"/>
                        <mxPoint x="510" y="140" as="targetPoint"/>
                        <Array as="points">
                            <mxPoint x="405" y="140"/>
                        </Array>
                    </mxGeometry>
                </mxCell>
            </root>
        </mxGraphModel>
    </diagram>
</mxfile>